<?xml version="1.0" standalone="no"?>
<!DOCTYPE svg PUBLIC "-//W3C//DTD SVG 20010904//EN"
 "http://www.w3.org/TR/2001/REC-SVG-20010904/DTD/svg10.dtd">
<svg version="1.0" xmlns="http://www.w3.org/2000/svg"
 width="128.000000pt" height="128.000000pt" viewBox="0 0 128.000000 128.000000"
 preserveAspectRatio="xMidYMid meet">
<metadata>
Created by potrace 1.14, written by Peter Selinger 2001-2017
</metadata>
<g transform="translate(0.000000,128.000000) scale(0.100000,-0.100000)"
fill="#000000" stroke="none">
<path d="M827 901 c-169 -131 -309 -240 -312 -243 -3 -3 -15 -31 -26 -63 -19
-53 -19 -59 -4 -68 9 -5 32 -23 52 -40 l35 -31 54 28 c29 15 66 44 81 65 15
20 33 42 40 49 7 7 13 16 13 20 0 4 13 21 28 37 15 17 64 77 109 135 45 58
122 156 172 219 79 102 97 133 73 130 -4 0 -145 -107 -315 -238z"/>
<path d="M395 472 c-34 -8 -63 -32 -75 -65 -35 -90 -68 -143 -122 -196 -66
-66 -66 -66 37 -77 100 -11 221 59 265 154 28 58 30 82 14 120 -19 47 -71 75
-119 64z"/>
</g>
</svg>
