<svg xmlns="http://www.w3.org/2000/svg" version="1.1" xmlns:xlink="http://www.w3.org/1999/xlink" xmlns:svgjs="http://svgjs.dev/svgjs" width="1500" height="1500" viewBox="0 0 1500 1500"><rect width="1500" height="1500" fill="#000000"></rect><g transform="matrix(0.6666666666666666,0,0,0.6666666666666666,249.39393939393938,671.3909135190895)"><svg viewBox="0 0 396 62" data-background-color="#010818" preserveAspectRatio="xMidYMid meet" height="234" width="1500" xmlns="http://www.w3.org/2000/svg" xmlns:xlink="http://www.w3.org/1999/xlink"><g id="tight-bounds" transform="matrix(1,0,0,1,0.2400000000000091,0.2420728321567367)"><svg viewBox="0 0 395.52 61.51585433568655" height="61.51585433568655" width="395.52"><g><svg viewBox="0 0 488.30351225473885 75.94662148934731" height="61.51585433568655" width="395.52"><g transform="matrix(1,0,0,1,92.7835122547389,4.868407126141356)"><svg viewBox="0 0 395.52 66.2098072370646" height="66.2098072370646" width="395.52"><g id="textblocktransform"><svg viewBox="0 0 395.52 66.2098072370646" height="66.2098072370646" width="395.52" id="textblock"><g><svg viewBox="0 0 395.52 66.2098072370646" height="66.2098072370646" width="395.52"><g transform="matrix(1,0,0,1,0,0)"><svg width="395.52" viewBox="4.38 -33.33 205.32 34.37" height="66.2098072370646" data-palette-color="#ffffff"><path d="M30-31.25L30 1.04 8.13-22.4 8.13 0 4.38 0 4.38-32.29 26.25-8.85 26.25-31.25 30-31.25ZM47.22 0.42L47.22 0.42Q44.2 0.42 41.7-1.04 39.2-2.5 37.72-4.97 36.25-7.43 36.25-10.42L36.25-10.42Q36.25-13.44 37.72-15.89 39.2-18.33 41.7-19.79 44.2-21.25 47.22-21.25L47.22-21.25Q50.28-21.25 52.76-19.79 55.24-18.33 56.72-15.89 58.19-13.44 58.19-10.42L58.19-10.42Q58.19-7.43 56.72-4.97 55.24-2.5 52.76-1.04 50.28 0.42 47.22 0.42ZM47.22-3.13L47.22-3.13Q49.23-3.13 50.87-4.11 52.5-5.1 53.47-6.75 54.44-8.4 54.44-10.42L54.44-10.42Q54.44-12.43 53.47-14.08 52.5-15.73 50.87-16.72 49.23-17.71 47.22-17.71L47.22-17.71Q45.21-17.71 43.57-16.72 41.94-15.73 40.97-14.08 40-12.43 40-10.42L40-10.42Q40-8.4 40.97-6.75 41.94-5.1 43.57-4.11 45.21-3.13 47.22-3.13ZM67.15 0L63.4 0 63.4-20.83 66.87-20.83 66.87-17.85Q68.02-19.55 69.77-20.4 71.52-21.25 73.47-21.25L73.47-21.25Q75.59-21.25 77.36-20.26 79.13-19.27 80.2-17.5L80.2-17.5Q81.42-19.38 83.35-20.31 85.27-21.25 87.43-21.25L87.43-21.25Q89.79-21.25 91.75-20.14 93.71-19.03 94.87-17.03 96.04-15.03 96.04-12.33L96.04-12.33 96.04 0 92.29 0 92.29-11.88Q92.29-14.72 90.67-16.2 89.06-17.67 86.94-17.67L86.94-17.67Q85.62-17.67 84.39-17.08 83.15-16.49 82.37-15.24 81.59-13.99 81.59-11.98L81.59-11.98 81.59 0 77.84 0 77.84-11.88Q77.84-13.85 77.06-15.14 76.28-16.42 75.05-17.07 73.81-17.71 72.5-17.71L72.5-17.71Q71.21-17.71 69.98-17.12 68.75-16.53 67.95-15.28 67.15-14.03 67.15-11.98L67.15-11.98 67.15 0ZM111.21 0.28L111.21 0.28Q108.36 0.28 106-1.16 103.64-2.6 102.23-5.03 100.83-7.47 100.83-10.42L100.83-10.42Q100.83-13.37 102.23-15.8 103.64-18.23 106-19.67 108.36-21.11 111.21-21.11L111.21-21.11Q113.36-21.11 115.25-20.31 117.15-19.51 118.53-18.09L118.53-18.09 118.53-20.83 122.01-20.83 122.01 0 118.53 0 118.53-2.74Q117.15-1.35 115.25-0.54 113.36 0.28 111.21 0.28ZM111.69-3.13L111.69-3.13Q113.67-3.13 115.29-4.11 116.9-5.1 117.86-6.75 118.81-8.4 118.81-10.42L118.81-10.42Q118.81-12.43 117.86-14.08 116.9-15.73 115.29-16.72 113.67-17.71 111.69-17.71L111.69-17.71Q109.71-17.71 108.1-16.72 106.49-15.73 105.53-14.08 104.58-12.43 104.58-10.42L104.58-10.42Q104.58-8.4 105.53-6.75 106.49-5.1 108.1-4.11 109.71-3.13 111.69-3.13ZM137.59 0.28L137.59 0.28Q134.75 0.28 132.39-1.16 130.02-2.6 128.62-5.03 127.21-7.47 127.21-10.42L127.21-10.42Q127.21-13.37 128.62-15.8 130.02-18.23 132.39-19.67 134.75-21.11 137.59-21.11L137.59-21.11Q139.64-21.11 141.45-20.38 143.25-19.65 144.64-18.37L144.64-18.37 144.64-33.33 148.39-33.33 148.39 0 144.92 0 144.92-2.74Q143.53-1.35 141.64-0.54 139.75 0.28 137.59 0.28ZM138.08-3.13L138.08-3.13Q140.06-3.13 141.67-4.11 143.29-5.1 144.24-6.75 145.2-8.4 145.2-10.42L145.2-10.42Q145.2-12.43 144.24-14.08 143.29-15.73 141.67-16.72 140.06-17.71 138.08-17.71L138.08-17.71Q136.1-17.71 134.49-16.72 132.87-15.73 131.92-14.08 130.96-12.43 130.96-10.42L130.96-10.42Q130.96-8.4 131.92-6.75 132.87-5.1 134.49-4.11 136.1-3.13 138.08-3.13ZM156.34 0L152.35 0 165.58-32.29 165.65-32.29 178.88 0 174.68 0 170.99-9.27 160.06-9.27 156.34 0ZM163.84-18.75L161.38-12.57 169.68-12.57 167.21-18.75Q166.76-19.93 166.34-21.08 165.93-22.22 165.51-23.82L165.51-23.82Q165.09-22.22 164.71-21.09 164.33-19.97 163.84-18.75L163.84-18.75ZM186.58 0L182.83 0 182.83-20.83 186.3-20.83 186.3-17.01Q187.42-18.85 189.26-19.95 191.1-21.04 193.63-21.04L193.63-21.04 194.57-17.29Q193.91-17.5 193.04-17.5L193.04-17.5Q190.12-17.5 188.35-15.64 186.58-13.78 186.58-10.35L186.58-10.35 186.58 0ZM204.64 0L200.89 0 200.89-17.71 196.16-17.71 196.16-20.83 200.99-20.83 200.99-27.78 204.53-27.78 204.53-20.83 209.7-20.83 209.7-17.71 204.64-17.71 204.64 0Z" opacity="1" transform="matrix(1,0,0,1,0,0)" fill="#ffffff" class="wordmark-text-0" data-fill-palette-color="primary" id="text-0"></path></svg></g></svg></g></svg></g></svg></g><g><svg viewBox="0 0 77.15296580144164 75.94662148934731" height="75.94662148934731" width="77.15296580144164"><g><svg xmlns="http://www.w3.org/2000/svg" version="1.1" data-icon="brush" data-container-transform="translate(0 1)" viewBox="0 3.806729626285418 125.1832973608581 123.22596289974186" x="0" y="0" height="75.94662148934731" width="77.15296580144164" class="icon-icon-0" data-fill-palette-color="accent" id="icon-0"><path d="M123.906 3.813C123.206 3.872 122.312 4.282 121.5 4.907L48.312 61.188C47.012 62.188 45.499 64.307 44.999 65.907L40.968 78.001C46.204 79.616 50.43 83.058 53.062 87.47L63.406 82.314C64.806 81.614 66.906 79.895 67.906 78.595L124 7.501C125.1 6.201 125.506 4.695 124.906 4.095 124.681 3.87 124.326 3.779 123.906 3.814zM34.375 85.032C28.907 85.167 23.881 88.732 22.094 94.095L21.906 94.814C18.506 107.014 10.6 117.402 0 124.002 1.7 124.702 3.394 125.315 5.094 125.815 23.094 130.715 41.788 120.39 47.188 102.69L47.501 101.69C49.501 94.69 45.289 87.403 38.188 85.502A13 13 0 0 0 34.375 85.033z" fill="#ffffff" data-fill-palette-color="accent"></path></svg></g></svg></g></svg></g><defs></defs></svg><rect width="395.52" height="61.51585433568655" fill="none" stroke="none" visibility="hidden"></rect></g></svg></g></svg>